<svg xmlns="http://www.w3.org/2000/svg" viewBox="0 0 1600 1000"><defs><linearGradient id="sky" x1="0" y1="0" x2="0" y2="1"><stop offset="0" stop-color="#172d45"/><stop offset=".55" stop-color="#496b79"/><stop offset="1" stop-color="#cdd9d8"/></linearGradient><linearGradient id="ice" x1="0" y1="0" x2="1" y2="1"><stop offset="0" stop-color="#eaf7f8"/><stop offset="1" stop-color="#9dc9d3"/></linearGradient></defs><rect width="1600" height="1000" fill="url(#sky)"/><path d="M0 640 L230 430 L390 560 L610 300 L805 540 L1030 360 L1240 580 L1400 470 L1600 630 L1600 1000 L0 1000 Z" fill="#1c2f35"/><path d="M520 420 L610 300 L700 430 L650 408 L610 360 L565 420 Z" fill="#f2f7f6"/><path d="M940 470 L1030 360 L1120 485 L1060 455 L1030 410 L995 458 Z" fill="#eef5f5"/><path d="M0 740 C260 690 470 720 680 785 C900 855 1170 820 1600 700 L1600 1000 L0 1000 Z" fill="#203a42"/><path d="M120 760 C380 720 550 750 760 815 C980 880 1250 845 1540 755" fill="none" stroke="url(#ice)" stroke-width="34" opacity=".95"/><path d="M60 180 C270 90 390 110 560 160 C720 210 900 210 1110 120" fill="none" stroke="#7de9bb" stroke-width="24" opacity=".45"/><path d="M330 140 C560 70 770 90 980 145" fill="none" stroke="#78d4ff" stroke-width="18" opacity=".35"/><text x="90" y="150" font-family="Georgia,serif" font-size="90" fill="#ffffff" opacity=".97">ICELAND</text><text x="94" y="220" font-family="Arial,sans-serif" font-size="30" letter-spacing="7" fill="#d9edf0">FIRE · ICE · NORTH</text></svg>